# xmcd
#
# Track frame offsets: 
#        150
#        14077
#        35922
#        49432
#        61672
#        77367
#        90000
#        116430
#        133725
#        156832
#        172182
#        196500
#        211505
#        231547
#        262395
#
# Disc length: 4178 seconds
#
# Revision: 4
# Processed by: cddbd v1.5.2PL0 Copyright (c) Steve Scherf et al.
# Submitted via: ExactAudioCopyFreeDBPlugin 1.0
#
DISCID=cb10500f
DTITLE=The Duke Robillard Band - Duke's Blues
DYEAR=1994
DGENRE=Blues
TTITLE0=Midnight Cannon Ball
TTITLE1=Glamour Girl
TTITLE2=I Still Love You Baby
TTITLE3=Texas Hop
TTITLE4=Don't Leave Me Baby
TTITLE5=Tell Me Why
TTITLE6=Something To Remember You By
TTITLE7=Love Slipped In
TTITLE8=Information Blues
TTITLE9=Don't Treat Me Like That
TTITLE10=Never Let You Go
TTITLE11=Gee I Wish
TTITLE12=My Heart Is Cryin'
TTITLE13=Red's Riff
TTITLE14=Dyin' Flu
EXTD=
EXTT0=
EXTT1=
EXTT2=
EXTT3=
EXTT4=
EXTT5=
EXTT6=
EXTT7=
EXTT8=
EXTT9=
EXTT10=
EXTT11=
EXTT12=
EXTT13=
EXTT14=
PLAYORDER=
